control3min_grf.mot
version=1
nRows=17
nColumns 19
inDegrees=yes
endheader
time	1_ground_force_vx	1_ground_force_vy	1_ground_force_vz	1_ground_force_px	1_ground_force_py	1_ground_force_pz	1_ground_torque_x	1_ground_torque_y	1_ground_torque_z	2_ground_force_vx	2_ground_force_vy	2_ground_force_vz	2_ground_force_px	2_ground_force_py	2_ground_force_pz	2_ground_torque_x	2_ground_torque_y	2_ground_torque_z
            0.005000	            8.533549	          119.367416	           -6.479674	           -0.283214	            0.006162	           -0.393122	            0.005774	            0.080772	           -0.004385	            9.357998	          147.676303	           13.521842	           -0.247458	            0.005578	           -0.694178	           -0.025024	           -0.394902	           -0.036159
            0.005500	            8.488445	          115.942163	           -6.448390	           -0.282945	            0.006166	           -0.394141	            0.002397	            0.032734	           -0.001821	            9.179239	          145.281675	           13.513380	           -0.246782	            0.005583	           -0.694994	           -0.026425	           -0.418238	           -0.038902
            0.006000	            8.351913	          113.597700	           -6.228818	           -0.282859	            0.006162	           -0.393292	            0.002317	            0.031516	           -0.001728	            9.192970	          141.416409	           12.983372	           -0.248211	            0.005573	           -0.693627	           -0.031179	           -0.479628	           -0.044034
            0.006500	            7.986378	          110.712198	           -5.965140	           -0.283126	            0.006159	           -0.392416	           -0.001419	           -0.019670	            0.001060	            8.967943	          138.838171	           12.786561	           -0.246766	            0.005580	           -0.693984	           -0.028524	           -0.441594	           -0.040669
            0.007000	            7.986773	          108.549010	           -5.974415	           -0.282689	            0.006157	           -0.391991	            0.004218	            0.057331	           -0.003155	            9.258909	          136.077790	           12.541945	           -0.247042	            0.005579	           -0.694212	           -0.031920	           -0.469121	           -0.043238
            0.007500	            8.033371	          105.664375	           -5.895185	           -0.282924	            0.006160	           -0.392641	            0.007816	            0.102804	           -0.005736	            9.170402	          134.605270	           12.255159	           -0.247257	            0.005580	           -0.694599	           -0.026840	           -0.393964	           -0.035869
            0.008000	            7.758758	          102.600002	           -5.953498	           -0.283070	            0.006161	           -0.392955	            0.005336	            0.070566	           -0.004095	            9.272639	          132.212524	           12.011937	           -0.246400	            0.005586	           -0.695346	           -0.026431	           -0.376858	           -0.034239
            0.008500	            7.530834	           99.894596	           -5.643532	           -0.283037	            0.006162	           -0.393207	            0.001860	            0.024667	           -0.001394	            8.911009	          128.529209	           11.717387	           -0.246820	            0.005580	           -0.694291	           -0.024581	           -0.354553	           -0.032323
            0.009000	            7.668937	           97.370707	           -5.608839	           -0.281729	            0.006165	           -0.393848	            0.005213	            0.066191	           -0.003813	            9.014576	          125.768151	           11.472851	           -0.246498	            0.005583	           -0.694559	           -0.029733	           -0.414829	           -0.037842
            0.009500	            7.440719	           95.026226	           -5.389039	           -0.283479	            0.006160	           -0.392703	           -0.002397	           -0.030611	            0.001736	            8.742013	          123.374037	           11.229788	           -0.246641	            0.005584	           -0.695038	           -0.027523	           -0.388430	           -0.035356
            0.010000	            7.533289	           92.682003	           -5.215892	           -0.282660	            0.006156	           -0.391834	           -0.000861	           -0.010591	            0.000596	            8.892409	          120.613332	           10.938304	           -0.247255	            0.005578	           -0.694079	           -0.031608	           -0.428714	           -0.038880
            0.010500	            7.441770	           90.519191	           -5.316652	           -0.282367	            0.006151	           -0.390512	            0.005882	            0.071546	           -0.004202	            8.670808	          117.113493	           10.972847	           -0.247268	            0.005577	           -0.693709	           -0.026132	           -0.352950	           -0.033069
            0.011000	            7.304980	           87.093920	           -5.285141	           -0.282649	            0.006157	           -0.391958	            0.004495	            0.053586	           -0.003252	            8.726174	          114.720746	           10.682717	           -0.246612	            0.005577	           -0.693239	           -0.025401	           -0.333940	           -0.031096
            0.011500	            7.123091	           85.829862	           -4.785681	           -0.281538	            0.006152	           -0.390725	           -0.000907	           -0.010932	            0.000610	            8.969523	          112.145189	           10.204137	           -0.247087	            0.005577	           -0.693567	           -0.029684	           -0.371136	           -0.033770
            0.012000	            6.939921	           82.225300	           -4.984109	           -0.283543	            0.006163	           -0.393371	           -0.002944	           -0.034885	            0.002115	            8.929340	          110.303369	           10.244515	           -0.245963	            0.005582	           -0.693956	           -0.029910	           -0.369475	           -0.034315
            0.012500	            7.031937	           80.422661	           -4.992066	           -0.282240	            0.006151	           -0.390597	            0.000593	            0.006782	           -0.000421	            8.892356	          107.541804	           10.000038	           -0.246299	            0.005582	           -0.694232	           -0.032144	           -0.388743	           -0.036148
            0.013000	            6.756932	           78.260009	           -5.138227	           -0.282117	            0.006154	           -0.391374	           -0.004854	           -0.056220	            0.003691	            8.950423	          104.412129	            9.801136	           -0.247366	            0.005576	           -0.693733	           -0.040591	           -0.473518	           -0.044449
